<svg width="832" height="736" viewBox="0 0 832 736" fill="none" xmlns="http://www.w3.org/2000/svg">
<g clip-path="url(#clip0)">
<path d="M659.21 278.789C659.21 142.125 549.81 31.3359 414.857 31.3359C279.905 31.3359 170.504 142.125 170.504 278.789V488.546C170.504 625.211 279.905 735.999 414.857 735.999C549.81 735.999 659.21 625.211 659.21 488.546V278.789Z" fill="#F8F8FF"/>
<path d="M209.915 217.597C209.915 217.597 228.518 198.125 231.778 174.839C235.037 151.552 255.856 146.028 270.086 150.456C284.316 154.883 297.473 195.216 332.552 195.005C367.63 194.794 426.688 165.973 428.874 158.214C431.06 150.455 434.349 136.075 458.427 132.724C482.505 129.373 483.598 106.117 518.627 106.117C553.656 106.117 615.317 112.065 620.793 114.278C626.268 116.492 652.135 120.175 657.561 150.888C657.561 150.888 661.963 163.809 654.301 200.359C646.64 236.908 700.271 260.194 713.408 260.194C726.545 260.194 764.854 342.219 722.163 412.048C679.472 481.876 684.948 508.473 640.071 480.769C595.194 453.065 599.577 481.876 595.194 453.055C590.812 424.234 568.93 439.751 562.401 424.234C555.872 408.717 578.818 377.682 563.494 371.03C548.171 364.378 509.833 376.575 502.201 336.674C494.569 296.774 447.466 344.433 469.408 381.013C491.35 417.592 445.33 389.878 445.33 412.048C445.33 434.217 419.066 451.948 432.193 468.572C445.32 485.197 479.266 578.311 374.189 576.087C269.112 573.863 328.209 594.936 306.327 597.149C284.445 599.363 272.302 569.435 237.273 569.435C202.244 569.435 81.8535 562.794 85.1329 509.59C88.4122 456.386 119.993 466.318 119.526 419.806C119.059 373.294 66.0731 319.487 146.197 270.439C226.322 221.391 209.915 217.597 209.915 217.597Z" fill="#90E0AB"/>
<path d="M199.551 94.4434H30.1299V495.129H199.551V94.4434Z" fill="url(#paint0_linear)"/>
<path d="M119.526 166.103C134.256 166.103 146.197 154.011 146.197 139.094C146.197 124.177 134.256 112.084 119.526 112.084C104.795 112.084 92.854 124.177 92.854 139.094C92.854 154.011 104.795 166.103 119.526 166.103Z" fill="#0FC1A1"/>
<path d="M137.204 195.004H50.7199C48.1844 195.004 46.1289 197.085 46.1289 199.653V201.072C46.1289 203.64 48.1844 205.721 50.7199 205.721H137.204C139.74 205.721 141.795 203.64 141.795 201.072V199.653C141.795 197.085 139.74 195.004 137.204 195.004Z" fill="#0FC1A1"/>
<path d="M183.174 195.004H168.745C166.21 195.004 164.154 197.085 164.154 199.653V201.072C164.154 203.64 166.21 205.721 168.745 205.721H183.174C185.71 205.721 187.765 203.64 187.765 201.072V199.653C187.765 197.085 185.71 195.004 183.174 195.004Z" fill="#0FC1A1"/>
<path d="M107.73 217.596H50.7199C48.1844 217.596 46.1289 219.677 46.1289 222.245V223.664C46.1289 226.231 48.1844 228.313 50.7199 228.313H107.73C110.266 228.313 112.321 226.231 112.321 223.664V222.245C112.321 219.677 110.266 217.596 107.73 217.596Z" fill="#0FC1A1"/>
<path d="M183.164 217.596H180.541C178.005 217.596 175.95 219.677 175.95 222.245V223.664C175.95 226.231 178.005 228.313 180.541 228.313H183.164C185.7 228.313 187.755 226.231 187.755 223.664V222.245C187.755 219.677 185.7 217.596 183.164 217.596Z" fill="#0FC1A1"/>
<path d="M148.046 242.705H51.5446C49.0091 242.705 46.9536 244.787 46.9536 247.354V248.773C46.9536 251.341 49.0091 253.422 51.5446 253.422H148.046C150.581 253.422 152.637 251.341 152.637 248.773V247.354C152.637 244.787 150.581 242.705 148.046 242.705Z" fill="#0FC1A1"/>
<path d="M183.989 242.705H176.238C173.702 242.705 171.647 244.787 171.647 247.354V248.773C171.647 251.341 173.702 253.422 176.238 253.422H183.989C186.525 253.422 188.58 251.341 188.58 248.773V247.354C188.58 244.787 186.525 242.705 183.989 242.705Z" fill="#0FC1A1"/>
<path d="M130.993 265.084H51.5446C49.0091 265.084 46.9536 267.165 46.9536 269.733V271.152C46.9536 273.72 49.0091 275.801 51.5446 275.801H130.993C133.529 275.801 135.584 273.72 135.584 271.152V269.733C135.584 267.165 133.529 265.084 130.993 265.084Z" fill="#0FC1A1"/>
<path d="M183.999 265.084H169.57C167.034 265.084 164.979 267.165 164.979 269.733V271.152C164.979 273.72 167.034 275.801 169.57 275.801H183.999C186.535 275.801 188.59 273.72 188.59 271.152V269.733C188.59 267.165 186.535 265.084 183.999 265.084Z" fill="#0FC1A1"/>
<path d="M95.2091 288.512H51.5446C49.0091 288.512 46.9536 290.593 46.9536 293.161V294.58C46.9536 297.147 49.0091 299.229 51.5446 299.229H95.2091C97.7447 299.229 99.8001 297.147 99.8001 294.58V293.161C99.8001 290.593 97.7447 288.512 95.2091 288.512Z" fill="#0FC1A1"/>
<path d="M183.999 288.512H160.597C158.061 288.512 156.006 290.593 156.006 293.161V294.58C156.006 297.147 158.061 299.229 160.597 299.229H183.999C186.535 299.229 188.59 297.147 188.59 294.58V293.161C188.59 290.593 186.535 288.512 183.999 288.512Z" fill="#0FC1A1"/>
<path d="M128.887 311.102H51.5446C49.0091 311.102 46.9536 313.183 46.9536 315.751V317.17C46.9536 319.737 49.0091 321.819 51.5446 321.819H128.887C131.422 321.819 133.478 319.737 133.478 317.17V315.751C133.478 313.183 131.422 311.102 128.887 311.102Z" fill="#0FC1A1"/>
<path d="M183.999 311.102H169.57C167.034 311.102 164.979 313.183 164.979 315.751V317.17C164.979 319.737 167.034 321.819 169.57 321.819H183.999C186.535 321.819 188.59 319.737 188.59 317.17V315.751C188.59 313.183 186.535 311.102 183.999 311.102Z" fill="#0FC1A1"/>
<path d="M484.125 481.088C481.039 475.296 479.832 468.666 480.676 462.14C481.519 455.614 484.371 449.523 488.826 444.73C495.116 437.947 500.233 429.142 499.816 418.666C498.822 392.502 523.586 383.093 527.72 394.605C531.854 406.118 529.787 445.927 546.313 449.017C562.838 452.106 587.652 471.156 568.016 495.126C548.38 519.097 540.122 481.45 548.38 519.127C556.638 556.803 509.117 587.818 497.699 559.219C486.282 530.619 451.253 540.743 476.006 521.22C492.542 508.168 490.425 493.003 484.125 481.088Z" fill="#90E0AB"/>
<path d="M596.446 174.858L599.169 171.939" stroke="white" stroke-miterlimit="10" stroke-linecap="round"/>
<path d="M603.502 167.299C607.537 162.962 612.913 157.155 618.587 150.986" stroke="white" stroke-miterlimit="10" stroke-linecap="round" stroke-dasharray="6.35 6.35"/>
<path d="M620.733 148.642L623.436 145.684" stroke="white" stroke-miterlimit="10" stroke-linecap="round"/>
<path d="M623.436 150.898C627.651 150.898 631.068 147.438 631.068 143.17C631.068 138.902 627.651 135.441 623.436 135.441C619.221 135.441 615.804 138.902 615.804 143.17C615.804 147.438 619.221 150.898 623.436 150.898Z" fill="white"/>
<path d="M587.672 190.888C591.887 190.888 595.304 187.428 595.304 183.16C595.304 178.892 591.887 175.432 587.672 175.432C583.457 175.432 580.04 178.892 580.04 183.16C580.04 187.428 583.457 190.888 587.672 190.888Z" fill="white"/>
<path d="M212.31 380.489C212.31 380.489 212.698 379.151 213.642 376.705" stroke="white" stroke-miterlimit="10" stroke-linecap="round"/>
<path d="M216.862 369.298C232.076 337.156 291.54 245.189 481.611 218.652" stroke="white" stroke-miterlimit="10" stroke-linecap="round" stroke-dasharray="8.03 8.03"/>
<path d="M485.586 218.109L489.561 217.596" stroke="white" stroke-miterlimit="10" stroke-linecap="round"/>
<path d="M204.619 388.771C204.619 388.771 205.344 390.009 206.676 392.202" stroke="white" stroke-miterlimit="10" stroke-linecap="round"/>
<path d="M211.108 399.367C222.744 417.924 248.104 456.053 271.099 475.123" stroke="white" stroke-miterlimit="10" stroke-linecap="round" stroke-dasharray="8.42 8.42"/>
<path d="M274.398 477.76C275.482 478.585 276.565 479.36 277.638 480.074" stroke="white" stroke-miterlimit="10" stroke-linecap="round"/>
<path d="M204.619 422.16C223.46 422.16 238.734 406.693 238.734 387.613C238.734 368.534 223.46 353.066 204.619 353.066C185.778 353.066 170.504 368.534 170.504 387.613C170.504 406.693 185.778 422.16 204.619 422.16Z" stroke="white" stroke-width="4" stroke-miterlimit="10"/>
<path d="M204.619 402.477C212.094 402.477 218.153 396.34 218.153 388.77C218.153 381.201 212.094 375.064 204.619 375.064C197.144 375.064 191.084 381.201 191.084 388.77C191.084 396.34 197.144 402.477 204.619 402.477Z" fill="white"/>
<path d="M550.665 248.057C569.506 248.057 584.78 232.589 584.78 213.51C584.78 194.43 569.506 178.963 550.665 178.963C531.824 178.963 516.551 194.43 516.551 213.51C516.551 232.589 531.824 248.057 550.665 248.057Z" stroke="white" stroke-width="4" stroke-miterlimit="10"/>
<path d="M550.665 228.385C558.14 228.385 564.2 222.248 564.2 214.679C564.2 207.109 558.14 200.973 550.665 200.973C543.19 200.973 537.131 207.109 537.131 214.679C537.131 222.248 543.19 228.385 550.665 228.385Z" fill="white"/>
<path d="M501.893 224.166C506.108 224.166 509.525 220.706 509.525 216.437C509.525 212.169 506.108 208.709 501.893 208.709C497.678 208.709 494.261 212.169 494.261 216.437C494.261 220.706 497.678 224.166 501.893 224.166Z" fill="white"/>
<path d="M277.638 487.812C281.853 487.812 285.27 484.352 285.27 480.084C285.27 475.816 281.853 472.355 277.638 472.355C273.423 472.355 270.006 475.816 270.006 480.084C270.006 484.352 273.423 487.812 277.638 487.812Z" fill="white"/>
<path d="M379.108 480.082H299.371C298.103 480.082 297.075 481.123 297.075 482.407V483.111C297.075 484.395 298.103 485.436 299.371 485.436H379.108C380.376 485.436 381.403 484.395 381.403 483.111V482.407C381.403 481.123 380.376 480.082 379.108 480.082Z" fill="#F8F8FF"/>
<path d="M379.108 495.127H299.371C298.103 495.127 297.075 496.168 297.075 497.452V498.156C297.075 499.44 298.103 500.481 299.371 500.481H379.108C380.376 500.481 381.403 499.44 381.403 498.156V497.452C381.403 496.168 380.376 495.127 379.108 495.127Z" fill="#F8F8FF"/>
<path d="M379.108 514.088H299.371C298.103 514.088 297.075 515.129 297.075 516.412V517.117C297.075 518.401 298.103 519.442 299.371 519.442H379.108C380.376 519.442 381.403 518.401 381.403 517.117V516.412C381.403 515.129 380.376 514.088 379.108 514.088Z" fill="#F8F8FF"/>
<path d="M348.779 529.191H299.371C298.103 529.191 297.075 530.232 297.075 531.516V532.22C297.075 533.504 298.103 534.545 299.371 534.545H348.779C350.047 534.545 351.075 533.504 351.075 532.22V531.516C351.075 530.232 350.047 529.191 348.779 529.191Z" fill="#F8F8FF"/>
<path d="M714.243 154.248H634.506C633.238 154.248 632.211 155.289 632.211 156.573V157.277C632.211 158.561 633.238 159.602 634.506 159.602H714.243C715.511 159.602 716.539 158.561 716.539 157.277V156.573C716.539 155.289 715.511 154.248 714.243 154.248Z" fill="#E9EDEA"/>
<path d="M714.243 169.293H634.506C633.238 169.293 632.211 170.334 632.211 171.618V172.322C632.211 173.606 633.238 174.647 634.506 174.647H714.243C715.511 174.647 716.539 173.606 716.539 172.322V171.618C716.539 170.334 715.511 169.293 714.243 169.293Z" fill="#E9EDEA"/>
<path d="M714.243 188.25H634.506C633.238 188.25 632.211 189.291 632.211 190.574V191.279C632.211 192.563 633.238 193.603 634.506 193.603H714.243C715.511 193.603 716.539 192.563 716.539 191.279V190.574C716.539 189.291 715.511 188.25 714.243 188.25Z" fill="#E9EDEA"/>
<path d="M683.914 203.357H634.506C633.238 203.357 632.211 204.398 632.211 205.682V206.386C632.211 207.67 633.238 208.711 634.506 208.711H683.914C685.182 208.711 686.21 207.67 686.21 206.386V205.682C686.21 204.398 685.182 203.357 683.914 203.357Z" fill="#E9EDEA"/>
<path d="M285.27 480.072C285.27 480.072 286.651 480.304 289.245 480.625" stroke="#0FC1A1" stroke-miterlimit="10"/>
<path d="M296.966 481.484C351.621 486.757 578.639 493.379 551.58 236.314" stroke="#0FC1A1" stroke-miterlimit="10" stroke-dasharray="7.86 7.86"/>
<path d="M551.172 232.369C551.023 231.041 550.864 229.712 550.695 228.344" stroke="#0FC1A1" stroke-miterlimit="10"/>
<path d="M711.421 231.534C711.421 231.534 695.273 214.899 710.427 203.125C725.582 191.352 729.646 192.056 729.775 203.79C729.904 215.523 718.566 217.304 725.433 229.672C732.299 242.04 723.992 245.28 718.854 242.593C713.717 239.906 711.421 231.534 711.421 231.534Z" fill="#90E0AB"/>
<path d="M708.678 235.338C708.678 235.338 709.672 244.395 717.751 248.289C725.83 252.183 739.543 261.371 738.331 268.667C737.119 275.963 721.06 255.585 716.032 257.376C711.004 259.167 700.013 252.495 696.714 243.932C693.414 235.368 694.041 228.555 699.029 228.616C704.018 228.676 708.678 235.338 708.678 235.338Z" fill="#90E0AB"/>
<path d="M680.456 85.2458H807.554C827.966 85.2458 839.602 61.0339 826.435 45.1944C818.764 35.9464 804.732 29.0128 779.631 30.0192C779.631 30.0192 744.542 -37.4041 695.382 29.9185C695.382 29.9185 654.937 25.8933 651.837 52.0575L651.747 52.8324C651.298 56.9178 651.706 61.0533 652.945 64.968C654.184 68.8827 656.225 72.4882 658.935 75.5483C661.646 78.6085 664.964 81.0543 668.673 82.7254C672.381 84.3966 676.397 85.2555 680.456 85.2458Z" fill="#F8F8FF"/>
<path d="M28.8874 664.432H155.946C176.357 664.432 187.993 640.22 174.827 624.391C167.145 615.133 153.123 608.209 128.012 609.206C128.012 609.206 92.9333 541.782 43.7635 609.115C43.7635 609.115 3.32869 605.09 0.228256 631.304C0.228256 631.566 0.168606 631.828 0.138794 632.079C-0.301912 636.163 0.11391 640.296 1.35906 644.206C2.60421 648.116 4.65061 651.716 7.36438 654.77C10.0782 657.824 13.3982 660.263 17.1071 661.928C20.816 663.593 24.8303 664.447 28.8874 664.432Z" fill="#F8F8FF"/>
</g>
<defs>
<linearGradient id="paint0_linear" x1="115.591" y1="221.32" x2="111.677" y2="594.784" gradientUnits="userSpaceOnUse">
<stop offset="0.03" stop-color="white"/>
<stop offset="1" stop-color="white" stop-opacity="0"/>
</linearGradient>
<clipPath id="clip0">
<rect width="832" height="736" fill="white"/>
</clipPath>
</defs>
</svg>
